<svg xmlns="http://www.w3.org/2000/svg" width="256" height="256"><path d="M128.048 0C198.722.024 256 57.326 256 128h0v.048c-.024 70.686-57.349 127.976-128.048 127.952C57.266 255.976-.024 198.639 0 127.953S57.349-.024 128.048 0zm-.653 32.92c-3.515 13.301-15.368 25.118-27.778 37.528-18.562 18.61-39.666 39.666-39.666 71.292.048 37.196 30.165 67.349 67.361 67.444 37.267 0 67.492-30.189 67.527-67.444 0-31.626-21.044-52.67-39.666-71.292h0l-1.663-1.664c-11.793-11.807-22.768-23.148-26.115-35.865zm.914 100.994c7.743 8.254 12.66 13.942 17.755 20.154a11.14 11.14 0 0 1 1.033 1.496c6.235 8.99 5.392 21.104-2.031 29.132-8.741 9.465-23.491 10.047-32.956 1.306s-10.047-23.491-1.306-32.956c4.964-5.867 10.962-11.639 17.505-19.132zM97.49 102.965l3.254 3.076 15.106 15.451a1.72 1.72 0 0 1 0 2.268h0l-15.795 17.458-5.522 6.722c-2.102 2.565-3.883 5.356-5.309 8.349-.202.499-.629.867-1.152.986h0-.558c-1.532-.131-3.29-2.957-3.29-2.957h0l-.279-.423a18.94 18.94 0 0 1-1.003-1.762h0l-.297-.641c-2.161-7.031-2.328-14.524-.511-21.65h0l.205-.741c1.677-5.915 4.324-11.524 7.835-16.586 2.256-3.325 4.703-6.508 7.316-9.548h0zm29.999-31.234c4.026 4.572 8.563 9.156 12.838 13.432h0l.095.297c8.943 8.325 17.018 17.529 24.132 27.469 6.033 8.479 9.335 18.598 9.453 29.013a44.85 44.85 0 0 1-2.007 13.266h0l-.066.177c-.358.872-1.137 1.508-2.072 1.663h0-.428a3.87 3.87 0 0 1-2.185-1.758h0l-.716-1.075c-3.851-5.713-8.193-11.075-12.977-16.038h0l-6.164-6.508-20.546-21.401c-3.468-3.337-9.667-9.323-12.28-12.577a3.17 3.17 0 0 0-.297-.511c-.713-.974-1.259-2.055-1.627-3.207h0v-.641a10.57 10.57 0 0 1 .808-6.164c.57-1.223 1.354-2.34 2.316-3.29 3.978-3.978 7.957-7.874 11.722-12.149z" fill="#009dde"/></svg>
