<svg xmlns="http://www.w3.org/2000/svg" width="24" height="24" fill="#5851DB" xmlns:v="https://vecta.io/nano"><path d="M12 0c6.627 0 12 5.373 12 12s-5.373 12-12 12S0 18.627 0 12 5.373 0 12 0zm3.115 4.5h-6.23c-2.554 0-4.281 1.652-4.38 4.155l-.005.23v6.2c0 1.3.423 2.419 1.27 3.236.758.73 1.751 1.121 2.882 1.173l.263.006h6.169c1.3 0 2.389-.423 3.175-1.179.762-.734 1.182-1.758 1.234-2.948l.006-.258v-6.23c0-1.27-.423-2.359-1.21-3.145-.734-.762-1.758-1.182-2.923-1.234l-.252-.006zm-6.2 1.391h6.23c.907 0 1.663.272 2.208.817.471.499.765 1.176.81 1.961l.006.217v6.23c0 .938-.333 1.694-.877 2.208-.499.471-1.176.739-1.984.781l-.224.006H8.915c-.907 0-1.663-.272-2.208-.786-.499-.499-.769-1.176-.811-2.007l-.006-.231v-6.2c0-.907.272-1.663.817-2.208.471-.471 1.171-.739 1.983-.781l.224-.006h6.23-6.23zM12 8.099a3.88 3.88 0 0 0-3.871 3.871A3.859 3.859 0 0 0 12 15.841a3.88 3.88 0 0 0 3.871-3.871A3.9 3.9 0 0 0 12 8.099zm0 1.391c1.361 0 2.48 1.119 2.48 2.48s-1.119 2.48-2.48 2.48-2.48-1.119-2.48-2.48S10.639 9.49 12 9.49zm4.022-2.359a.877.877 0 1 0 0 1.754.877.877 0 0 0 0-1.754z"/></svg>
