<svg xmlns="http://www.w3.org/2000/svg" width="24" height="24" viewBox="0 0 24 24" fill="#E60023"><path d="M12 0c6.627 0 12 5.373 12 12s-5.373 12-12 12S0 18.627 0 12 5.373 0 12 0zm.564 4.2C8.334 4.2 6.2 7.33 6.2 9.941c0 1.581.58 2.987 1.823 3.51.204.087.387.004.446-.23l.182-.737c.05-.197.041-.285-.066-.432l-.062-.08c-.359-.436-.588-1.001-.588-1.802 0-2.322 1.683-4.402 4.384-4.402 2.39 0 3.704 1.508 3.704 3.522 0 2.65-1.136 4.887-2.822 4.887-.932 0-1.629-.795-1.406-1.77.268-1.165.786-2.42.786-3.262 0-.752-.391-1.38-1.2-1.38-.953 0-1.718 1.017-1.718 2.38 0 .867.284 1.453.284 1.453l-1.145 5.008c-.34 1.487-.051 3.309-.027 3.492.015.11.15.136.212.054l.187-.252c.339-.468 1.036-1.502 1.366-2.568l.055-.188c.109-.409.626-2.526.626-2.526.31.61 1.213 1.145 2.175 1.145 2.862 0 4.804-2.693 4.804-6.298 0-2.726-2.237-5.265-5.636-5.265z"/></svg>
